<mxfile host="app.diagrams.net" modified="2020-11-27T02:38:01.635Z" agent="5.0 (Windows NT 10.0; WOW64) AppleWebKit/537.36 (KHTML, like Gecko) Chrome/78.0.3904.108 Safari/537.36" etag="Bf-ue5wp3hBdr7QmZ5Qq" version="13.10.2" type="github">
  <diagram id="O65AdTRd_UKjVnyIkCUA" name="第 1 页">
    <mxGraphModel dx="1822" dy="-5259" grid="0" gridSize="10" guides="1" tooltips="1" connect="1" arrows="1" fold="1" page="0" pageScale="1" pageWidth="827" pageHeight="1169" background="#ffffff" math="0" shadow="0">
      <root>
        <mxCell id="0" />
        <mxCell id="1" parent="0" />
        <mxCell id="2FQlhROQ1IaKFJlRQfTV-1" value="" style="rounded=0;whiteSpace=wrap;html=1;" vertex="1" parent="1">
          <mxGeometry x="-165" y="6078" width="698" height="1127" as="geometry" />
        </mxCell>
        <mxCell id="2FQlhROQ1IaKFJlRQfTV-2" value="鹊桥前端" style="rounded=0;whiteSpace=wrap;html=1;fillColor=#b0e3e6;strokeColor=#0e8088;" vertex="1" parent="1">
          <mxGeometry x="-165" y="6078" width="232" height="50" as="geometry" />
        </mxCell>
        <mxCell id="2FQlhROQ1IaKFJlRQfTV-3" value="履约" style="rounded=0;whiteSpace=wrap;html=1;fillColor=#b0e3e6;strokeColor=#0e8088;" vertex="1" parent="1">
          <mxGeometry x="327" y="6078" width="206" height="50" as="geometry" />
        </mxCell>
        <mxCell id="2FQlhROQ1IaKFJlRQfTV-4" value="鹊桥后端" style="rounded=0;whiteSpace=wrap;html=1;fillColor=#b0e3e6;strokeColor=#0e8088;" vertex="1" parent="1">
          <mxGeometry x="65" y="6078" width="261" height="50" as="geometry" />
        </mxCell>
        <mxCell id="2FQlhROQ1IaKFJlRQfTV-5" value="" style="rounded=0;whiteSpace=wrap;html=1;" vertex="1" parent="1">
          <mxGeometry x="-164" y="6128" width="229" height="1077" as="geometry" />
        </mxCell>
        <mxCell id="2FQlhROQ1IaKFJlRQfTV-6" value="售后" style="ellipse;whiteSpace=wrap;html=1;" vertex="1" parent="1">
          <mxGeometry x="-280" y="6169" width="62.5" height="50" as="geometry" />
        </mxCell>
        <mxCell id="2FQlhROQ1IaKFJlRQfTV-7" value="选择订单" style="edgeStyle=orthogonalEdgeStyle;rounded=0;orthogonalLoop=1;jettySize=auto;html=1;" edge="1" parent="1" source="2FQlhROQ1IaKFJlRQfTV-8" target="2FQlhROQ1IaKFJlRQfTV-10">
          <mxGeometry relative="1" as="geometry" />
        </mxCell>
        <mxCell id="2FQlhROQ1IaKFJlRQfTV-8" value="订单列表" style="rounded=0;whiteSpace=wrap;html=1;fillColor=#d5e8d4;strokeColor=#82b366;" vertex="1" parent="1">
          <mxGeometry x="-94" y="6172" width="76" height="50" as="geometry" />
        </mxCell>
        <mxCell id="2FQlhROQ1IaKFJlRQfTV-9" value="选择子订单" style="edgeStyle=orthogonalEdgeStyle;rounded=0;orthogonalLoop=1;jettySize=auto;html=1;entryX=0.5;entryY=0;entryDx=0;entryDy=0;" edge="1" parent="1" source="2FQlhROQ1IaKFJlRQfTV-10" target="2FQlhROQ1IaKFJlRQfTV-12">
          <mxGeometry relative="1" as="geometry" />
        </mxCell>
        <mxCell id="2FQlhROQ1IaKFJlRQfTV-10" value="订单申请页" style="rounded=0;whiteSpace=wrap;html=1;fillColor=#d5e8d4;strokeColor=#82b366;" vertex="1" parent="1">
          <mxGeometry x="-93.5" y="6267" width="76" height="50" as="geometry" />
        </mxCell>
        <mxCell id="2FQlhROQ1IaKFJlRQfTV-11" value="发起退款" style="endArrow=classic;html=1;exitX=1;exitY=0.5;exitDx=0;exitDy=0;" edge="1" parent="1" source="2FQlhROQ1IaKFJlRQfTV-6" target="2FQlhROQ1IaKFJlRQfTV-8">
          <mxGeometry width="50" height="50" relative="1" as="geometry">
            <mxPoint x="-210" y="6216" as="sourcePoint" />
            <mxPoint x="-160" y="6166" as="targetPoint" />
          </mxGeometry>
        </mxCell>
        <mxCell id="2FQlhROQ1IaKFJlRQfTV-12" value="输入金额" style="rounded=0;whiteSpace=wrap;html=1;fillColor=#b1ddf0;strokeColor=#10739e;" vertex="1" parent="1">
          <mxGeometry x="-93.5" y="6376" width="76" height="50" as="geometry" />
        </mxCell>
        <mxCell id="2FQlhROQ1IaKFJlRQfTV-13" value="" style="rounded=0;whiteSpace=wrap;html=1;" vertex="1" parent="1">
          <mxGeometry x="65.5" y="6128" width="261.5" height="1077" as="geometry" />
        </mxCell>
        <mxCell id="2FQlhROQ1IaKFJlRQfTV-14" value="有" style="edgeStyle=orthogonalEdgeStyle;rounded=0;orthogonalLoop=1;jettySize=auto;html=1;exitX=1;exitY=0.5;exitDx=0;exitDy=0;" edge="1" parent="1">
          <mxGeometry relative="1" as="geometry">
            <mxPoint x="270" y="6402" as="sourcePoint" />
            <mxPoint x="404.5" y="6397" as="targetPoint" />
            <Array as="points">
              <mxPoint x="270" y="6397" />
            </Array>
          </mxGeometry>
        </mxCell>
        <mxCell id="2FQlhROQ1IaKFJlRQfTV-15" value="处理退款" style="edgeStyle=orthogonalEdgeStyle;rounded=0;orthogonalLoop=1;jettySize=auto;html=1;" edge="1" parent="1" source="2FQlhROQ1IaKFJlRQfTV-16" target="2FQlhROQ1IaKFJlRQfTV-18">
          <mxGeometry relative="1" as="geometry" />
        </mxCell>
        <mxCell id="2FQlhROQ1IaKFJlRQfTV-16" value="售后" style="ellipse;whiteSpace=wrap;html=1;" vertex="1" parent="1">
          <mxGeometry x="-285.5" y="6468" width="62.5" height="50" as="geometry" />
        </mxCell>
        <mxCell id="2FQlhROQ1IaKFJlRQfTV-17" value="选择订单" style="edgeStyle=orthogonalEdgeStyle;rounded=0;orthogonalLoop=1;jettySize=auto;html=1;" edge="1" parent="1" source="2FQlhROQ1IaKFJlRQfTV-18" target="2FQlhROQ1IaKFJlRQfTV-22">
          <mxGeometry relative="1" as="geometry" />
        </mxCell>
        <mxCell id="2FQlhROQ1IaKFJlRQfTV-18" value="退款中订单列表" style="rounded=0;whiteSpace=wrap;html=1;fillColor=#d5e8d4;strokeColor=#82b366;" vertex="1" parent="1">
          <mxGeometry x="-93.5" y="6468" width="76" height="50" as="geometry" />
        </mxCell>
        <mxCell id="2FQlhROQ1IaKFJlRQfTV-19" value="履约任务暂停" style="rounded=0;whiteSpace=wrap;html=1;fillColor=#b1ddf0;strokeColor=#10739e;" vertex="1" parent="1">
          <mxGeometry x="401.5" y="6374" width="76" height="50" as="geometry" />
        </mxCell>
        <mxCell id="2FQlhROQ1IaKFJlRQfTV-20" value="选择退款单" style="edgeStyle=orthogonalEdgeStyle;rounded=0;orthogonalLoop=1;jettySize=auto;html=1;" edge="1" parent="1" source="2FQlhROQ1IaKFJlRQfTV-22">
          <mxGeometry relative="1" as="geometry">
            <mxPoint x="-55.5" y="6678" as="targetPoint" />
          </mxGeometry>
        </mxCell>
        <mxCell id="2FQlhROQ1IaKFJlRQfTV-21" value="创建赔付单" style="edgeStyle=orthogonalEdgeStyle;rounded=0;orthogonalLoop=1;jettySize=auto;html=1;dashed=1;" edge="1" parent="1" source="2FQlhROQ1IaKFJlRQfTV-22" target="2FQlhROQ1IaKFJlRQfTV-54">
          <mxGeometry relative="1" as="geometry">
            <mxPoint x="168.0079999999998" y="6531.491" as="targetPoint" />
          </mxGeometry>
        </mxCell>
        <mxCell id="2FQlhROQ1IaKFJlRQfTV-22" value="订单处理页" style="rounded=0;whiteSpace=wrap;html=1;fillColor=#d5e8d4;strokeColor=#82b366;" vertex="1" parent="1">
          <mxGeometry x="-93.5" y="6558" width="76" height="50" as="geometry" />
        </mxCell>
        <mxCell id="2FQlhROQ1IaKFJlRQfTV-23" value="确认撤销" style="edgeStyle=orthogonalEdgeStyle;rounded=0;orthogonalLoop=1;jettySize=auto;html=1;" edge="1" parent="1" source="2FQlhROQ1IaKFJlRQfTV-25" target="2FQlhROQ1IaKFJlRQfTV-26">
          <mxGeometry relative="1" as="geometry" />
        </mxCell>
        <mxCell id="2FQlhROQ1IaKFJlRQfTV-24" value="完结" style="edgeStyle=orthogonalEdgeStyle;rounded=0;orthogonalLoop=1;jettySize=auto;html=1;entryX=0;entryY=0.5;entryDx=0;entryDy=0;" edge="1" parent="1" source="2FQlhROQ1IaKFJlRQfTV-25" target="2FQlhROQ1IaKFJlRQfTV-39">
          <mxGeometry x="-0.2932" relative="1" as="geometry">
            <Array as="points">
              <mxPoint x="-55" y="6819" />
            </Array>
            <mxPoint as="offset" />
          </mxGeometry>
        </mxCell>
        <mxCell id="2FQlhROQ1IaKFJlRQfTV-25" value="撤销/完结" style="rhombus;whiteSpace=wrap;html=1;fillColor=#fad7ac;strokeColor=#b46504;" vertex="1" parent="1">
          <mxGeometry x="-88.5" y="6663" width="66" height="56" as="geometry" />
        </mxCell>
        <mxCell id="2FQlhROQ1IaKFJlRQfTV-26" value="订单状态恢复" style="rounded=0;whiteSpace=wrap;html=1;fillColor=#b1ddf0;strokeColor=#10739e;" vertex="1" parent="1">
          <mxGeometry x="132" y="6666" width="76" height="50" as="geometry" />
        </mxCell>
        <mxCell id="2FQlhROQ1IaKFJlRQfTV-27" value="履约任务恢复" style="rounded=0;whiteSpace=wrap;html=1;fillColor=#b1ddf0;strokeColor=#10739e;" vertex="1" parent="1">
          <mxGeometry x="398" y="6666" width="76" height="50" as="geometry" />
        </mxCell>
        <mxCell id="2FQlhROQ1IaKFJlRQfTV-28" style="edgeStyle=orthogonalEdgeStyle;rounded=0;orthogonalLoop=1;jettySize=auto;html=1;" edge="1" parent="1" source="2FQlhROQ1IaKFJlRQfTV-30" target="2FQlhROQ1IaKFJlRQfTV-32">
          <mxGeometry relative="1" as="geometry" />
        </mxCell>
        <mxCell id="2FQlhROQ1IaKFJlRQfTV-29" value="&lt;span style=&quot;font-size: 12px&quot;&gt;订单进入退款中列表&lt;/span&gt;" style="edgeStyle=orthogonalEdgeStyle;rounded=0;orthogonalLoop=1;jettySize=auto;html=1;entryX=1.011;entryY=0.647;entryDx=0;entryDy=0;entryPerimeter=0;dashed=1;dashPattern=1 2;" edge="1" parent="1" source="2FQlhROQ1IaKFJlRQfTV-30" target="2FQlhROQ1IaKFJlRQfTV-18">
          <mxGeometry relative="1" as="geometry">
            <Array as="points">
              <mxPoint x="133" y="6500" />
            </Array>
          </mxGeometry>
        </mxCell>
        <mxCell id="2FQlhROQ1IaKFJlRQfTV-30" value="创建退款单" style="rounded=0;whiteSpace=wrap;html=1;fillColor=#b1ddf0;strokeColor=#10739e;" vertex="1" parent="1">
          <mxGeometry x="106.75" y="6385" width="51.5" height="32" as="geometry" />
        </mxCell>
        <mxCell id="2FQlhROQ1IaKFJlRQfTV-31" value="确认退款" style="edgeStyle=orthogonalEdgeStyle;rounded=0;orthogonalLoop=1;jettySize=auto;html=1;" edge="1" parent="1" source="2FQlhROQ1IaKFJlRQfTV-12" target="2FQlhROQ1IaKFJlRQfTV-30">
          <mxGeometry relative="1" as="geometry">
            <mxPoint x="-18.000000000000227" y="6401" as="sourcePoint" />
            <mxPoint x="147" y="6401" as="targetPoint" />
          </mxGeometry>
        </mxCell>
        <mxCell id="2FQlhROQ1IaKFJlRQfTV-32" value="是否有合同" style="rhombus;whiteSpace=wrap;html=1;fillColor=#fad7ac;strokeColor=#b46504;" vertex="1" parent="1">
          <mxGeometry x="204" y="6373" width="66" height="56" as="geometry" />
        </mxCell>
        <mxCell id="2FQlhROQ1IaKFJlRQfTV-33" value="&lt;span style=&quot;font-size: 12px&quot;&gt;订单进入已退款列表&lt;/span&gt;" style="edgeStyle=orthogonalEdgeStyle;rounded=0;orthogonalLoop=1;jettySize=auto;html=1;dashed=1;dashPattern=1 2;" edge="1" parent="1" source="2FQlhROQ1IaKFJlRQfTV-41" target="2FQlhROQ1IaKFJlRQfTV-34">
          <mxGeometry relative="1" as="geometry">
            <mxPoint x="196" y="7115" as="sourcePoint" />
            <Array as="points">
              <mxPoint x="175" y="7090" />
            </Array>
          </mxGeometry>
        </mxCell>
        <mxCell id="2FQlhROQ1IaKFJlRQfTV-34" value="已退款列表" style="rounded=0;whiteSpace=wrap;html=1;fillColor=#d5e8d4;strokeColor=#82b366;" vertex="1" parent="1">
          <mxGeometry x="-93.5" y="7059" width="76" height="50" as="geometry" />
        </mxCell>
        <mxCell id="2FQlhROQ1IaKFJlRQfTV-35" value="履约任务取消" style="rounded=0;whiteSpace=wrap;html=1;fillColor=#b1ddf0;strokeColor=#10739e;" vertex="1" parent="1">
          <mxGeometry x="398.5" y="6779.75" width="76" height="27.5" as="geometry" />
        </mxCell>
        <mxCell id="2FQlhROQ1IaKFJlRQfTV-36" value="取消服务" style="edgeStyle=orthogonalEdgeStyle;rounded=0;orthogonalLoop=1;jettySize=auto;html=1;dashed=1;" edge="1" parent="1" source="2FQlhROQ1IaKFJlRQfTV-39" target="2FQlhROQ1IaKFJlRQfTV-41">
          <mxGeometry relative="1" as="geometry" />
        </mxCell>
        <mxCell id="2FQlhROQ1IaKFJlRQfTV-37" value="恢复服务" style="edgeStyle=orthogonalEdgeStyle;rounded=0;orthogonalLoop=1;jettySize=auto;html=1;dashed=1;" edge="1" parent="1" source="2FQlhROQ1IaKFJlRQfTV-39">
          <mxGeometry relative="1" as="geometry">
            <mxPoint x="128" y="6848" as="targetPoint" />
            <Array as="points">
              <mxPoint x="-55" y="6848" />
            </Array>
          </mxGeometry>
        </mxCell>
        <mxCell id="2FQlhROQ1IaKFJlRQfTV-38" value="取消并创建新任务" style="edgeStyle=orthogonalEdgeStyle;rounded=0;orthogonalLoop=1;jettySize=auto;html=1;dashed=1;" edge="1" parent="1" source="2FQlhROQ1IaKFJlRQfTV-39" target="2FQlhROQ1IaKFJlRQfTV-49">
          <mxGeometry relative="1" as="geometry">
            <Array as="points">
              <mxPoint x="-55" y="6917" />
              <mxPoint x="-55" y="6917" />
            </Array>
          </mxGeometry>
        </mxCell>
        <mxCell id="2FQlhROQ1IaKFJlRQfTV-39" value="选择完结类型" style="rhombus;whiteSpace=wrap;html=1;fillColor=#fad7ac;strokeColor=#b46504;" vertex="1" parent="1">
          <mxGeometry x="-88.5" y="6791" width="66" height="56" as="geometry" />
        </mxCell>
        <mxCell id="2FQlhROQ1IaKFJlRQfTV-40" value="有" style="edgeStyle=orthogonalEdgeStyle;rounded=0;orthogonalLoop=1;jettySize=auto;html=1;" edge="1" parent="1" source="2FQlhROQ1IaKFJlRQfTV-50" target="2FQlhROQ1IaKFJlRQfTV-35">
          <mxGeometry relative="1" as="geometry" />
        </mxCell>
        <mxCell id="2FQlhROQ1IaKFJlRQfTV-41" value="订单/子订单进行退款,更新退款金额" style="rounded=0;whiteSpace=wrap;html=1;fillColor=#b1ddf0;strokeColor=#10739e;" vertex="1" parent="1">
          <mxGeometry x="131" y="6769" width="99" height="50" as="geometry" />
        </mxCell>
        <mxCell id="2FQlhROQ1IaKFJlRQfTV-42" style="edgeStyle=orthogonalEdgeStyle;rounded=0;orthogonalLoop=1;jettySize=auto;html=1;" edge="1" parent="1" target="2FQlhROQ1IaKFJlRQfTV-52">
          <mxGeometry relative="1" as="geometry">
            <mxPoint x="219" y="6850.5" as="sourcePoint" />
          </mxGeometry>
        </mxCell>
        <mxCell id="2FQlhROQ1IaKFJlRQfTV-43" style="edgeStyle=orthogonalEdgeStyle;rounded=0;orthogonalLoop=1;jettySize=auto;html=1;" edge="1" parent="1" target="2FQlhROQ1IaKFJlRQfTV-53">
          <mxGeometry relative="1" as="geometry">
            <mxPoint x="219" y="6939.5" as="sourcePoint" />
          </mxGeometry>
        </mxCell>
        <mxCell id="2FQlhROQ1IaKFJlRQfTV-44" style="edgeStyle=orthogonalEdgeStyle;curved=0;rounded=1;sketch=0;orthogonalLoop=1;jettySize=auto;html=1;" edge="1" parent="1" source="2FQlhROQ1IaKFJlRQfTV-45" target="2FQlhROQ1IaKFJlRQfTV-27">
          <mxGeometry relative="1" as="geometry" />
        </mxCell>
        <mxCell id="2FQlhROQ1IaKFJlRQfTV-45" value="是否有合同" style="rhombus;whiteSpace=wrap;html=1;fillColor=#fad7ac;strokeColor=#b46504;" vertex="1" parent="1">
          <mxGeometry x="249" y="6663" width="66" height="56" as="geometry" />
        </mxCell>
        <mxCell id="2FQlhROQ1IaKFJlRQfTV-46" style="edgeStyle=orthogonalEdgeStyle;rounded=0;orthogonalLoop=1;jettySize=auto;html=1;" edge="1" parent="1" source="2FQlhROQ1IaKFJlRQfTV-26" target="2FQlhROQ1IaKFJlRQfTV-45">
          <mxGeometry relative="1" as="geometry">
            <mxPoint x="208" y="6691" as="sourcePoint" />
            <mxPoint x="397" y="6691" as="targetPoint" />
          </mxGeometry>
        </mxCell>
        <mxCell id="2FQlhROQ1IaKFJlRQfTV-47" value="如果订单无合同默认选择取消服务" style="text;html=1;strokeColor=none;fillColor=none;align=center;verticalAlign=middle;whiteSpace=wrap;rounded=0;" vertex="1" parent="1">
          <mxGeometry x="-43" y="6747" width="102" height="38" as="geometry" />
        </mxCell>
        <mxCell id="2FQlhROQ1IaKFJlRQfTV-48" value="确认退款" style="edgeStyle=orthogonalEdgeStyle;rounded=0;orthogonalLoop=1;jettySize=auto;html=1;" edge="1" parent="1" source="2FQlhROQ1IaKFJlRQfTV-49" target="2FQlhROQ1IaKFJlRQfTV-56">
          <mxGeometry relative="1" as="geometry" />
        </mxCell>
        <mxCell id="2FQlhROQ1IaKFJlRQfTV-49" value="选择任务" style="rhombus;whiteSpace=wrap;html=1;fillColor=#fad7ac;strokeColor=#b46504;" vertex="1" parent="1">
          <mxGeometry x="-93.5" y="6920" width="66" height="56" as="geometry" />
        </mxCell>
        <mxCell id="2FQlhROQ1IaKFJlRQfTV-50" value="是否有合同" style="rhombus;whiteSpace=wrap;html=1;fillColor=#fad7ac;strokeColor=#b46504;" vertex="1" parent="1">
          <mxGeometry x="273" y="6766" width="66" height="56" as="geometry" />
        </mxCell>
        <mxCell id="2FQlhROQ1IaKFJlRQfTV-51" style="edgeStyle=orthogonalEdgeStyle;rounded=0;orthogonalLoop=1;jettySize=auto;html=1;" edge="1" parent="1" source="2FQlhROQ1IaKFJlRQfTV-41" target="2FQlhROQ1IaKFJlRQfTV-50">
          <mxGeometry relative="1" as="geometry">
            <mxPoint x="219" y="6783.5" as="sourcePoint" />
            <mxPoint x="402.5" y="6783.6" as="targetPoint" />
          </mxGeometry>
        </mxCell>
        <mxCell id="2FQlhROQ1IaKFJlRQfTV-52" value="合同退款-履约任务恢复" style="rounded=0;whiteSpace=wrap;html=1;fillColor=#b1ddf0;strokeColor=#10739e;" vertex="1" parent="1">
          <mxGeometry x="400" y="6836.75" width="76" height="27.5" as="geometry" />
        </mxCell>
        <mxCell id="2FQlhROQ1IaKFJlRQfTV-53" value="合同退款-履约任务取消&lt;br&gt;+创建新任务" style="rounded=0;whiteSpace=wrap;html=1;fillColor=#b1ddf0;strokeColor=#10739e;" vertex="1" parent="1">
          <mxGeometry x="396" y="6915.25" width="84" height="48.5" as="geometry" />
        </mxCell>
        <mxCell id="2FQlhROQ1IaKFJlRQfTV-54" value="创建赔付单" style="rounded=0;whiteSpace=wrap;html=1;fillColor=#b1ddf0;strokeColor=#10739e;" vertex="1" parent="1">
          <mxGeometry x="132" y="6558" width="76" height="50" as="geometry" />
        </mxCell>
        <mxCell id="2FQlhROQ1IaKFJlRQfTV-55" value="订单/子订单进行退款,更新退款金额" style="rounded=0;whiteSpace=wrap;html=1;fillColor=#b1ddf0;strokeColor=#10739e;" vertex="1" parent="1">
          <mxGeometry x="129.5" y="6833" width="99" height="50" as="geometry" />
        </mxCell>
        <mxCell id="2FQlhROQ1IaKFJlRQfTV-56" value="订单/子订单进行退款,更新退款金额" style="rounded=0;whiteSpace=wrap;html=1;fillColor=#b1ddf0;strokeColor=#10739e;" vertex="1" parent="1">
          <mxGeometry x="127.5" y="6913.75" width="99" height="50" as="geometry" />
        </mxCell>
      </root>
    </mxGraphModel>
  </diagram>
</mxfile>
